<svg width="68" height="58" fill="none" xmlns="http://www.w3.org/2000/svg"><path d="M64.078.563H3.922A3.832 3.832 0 00.094 4.39v49.218a3.832 3.832 0 003.828 3.828h60.156a3.832 3.832 0 003.828-3.828V4.391A3.833 3.833 0 0064.078.562zm1.64 53.046a1.642 1.642 0 01-1.64 1.641H3.922a1.642 1.642 0 01-1.64-1.64V9.312h63.437v44.296zm0-46.484H2.282V4.391a1.642 1.642 0 011.64-1.641h60.157a1.642 1.642 0 011.64 1.64v2.735z" fill="#000"/><path d="M4.469 6.031h1.093a1.094 1.094 0 100-2.187H4.47a1.094 1.094 0 100 2.187zm4.375 0h1.094a1.094 1.094 0 100-2.187H8.844a1.094 1.094 0 100 2.187zm4.375 0h1.094a1.094 1.094 0 100-2.187h-1.094a1.094 1.094 0 100 2.187zm10.937 6.563h-17.5a1.094 1.094 0 00-1.093 1.094v17.5a1.094 1.094 0 001.093 1.093h17.5a1.094 1.094 0 001.094-1.093v-17.5a1.093 1.093 0 00-1.094-1.094zm-1.093 17.5H7.75V14.78h15.313v15.313z" fill="#000"/><path d="M20.664 27.511l-4.238-10.937a1.094 1.094 0 00-1.014-.699h-.006a1.095 1.095 0 00-1.016.688L10.015 27.5a1.094 1.094 0 002.032.812l1.475-3.687H17.2l1.425 3.676a1.094 1.094 0 002.04-.79zm-6.267-5.073l.993-2.483.962 2.483h-1.955zm46.947 9.843h-17.5a1.094 1.094 0 00-1.094 1.094v17.5a1.093 1.093 0 001.094 1.094h17.5a1.094 1.094 0 001.093-1.094v-17.5a1.093 1.093 0 00-1.093-1.094zm-1.094 17.5H44.937V34.47H60.25v15.31z" fill="#000"/><path d="M54.587 39.954a3.286 3.286 0 00-3.087-4.391h-3.281a1.093 1.093 0 00-1.094 1.093v10.938a1.093 1.093 0 001.094 1.093h6.015a3.832 3.832 0 003.828-3.828v-1.093a3.834 3.834 0 00-3.475-3.812zm-5.275-2.204H51.5a1.093 1.093 0 110 2.188h-2.188V37.75zm6.563 7.11a1.642 1.642 0 01-1.64 1.64h-4.922v-4.375h4.921a1.642 1.642 0 011.641 1.64v1.094zM27.438 23.531H51.5v6.563a1.093 1.093 0 102.188 0v-7.657a1.093 1.093 0 00-1.094-1.093H27.437a1.094 1.094 0 100 2.187zm13.125 17.5H16.5V34.47a1.093 1.093 0 10-2.188 0v7.656a1.093 1.093 0 001.094 1.094h25.157a1.094 1.094 0 000-2.188z" fill="#000"/></svg>