<svg width="70" height="70" fill="none" xmlns="http://www.w3.org/2000/svg"><path d="M14.219 7.656a6.57 6.57 0 00-6.563 6.563 6.569 6.569 0 006.563 6.562 6.569 6.569 0 006.562-6.562 6.569 6.569 0 00-6.562-6.563zm0 10.938a4.38 4.38 0 01-4.375-4.375 4.38 4.38 0 014.375-4.375 4.38 4.38 0 014.375 4.375 4.38 4.38 0 01-4.375 4.375zm19.687-5.469h2.188v2.188h-2.188v-2.188zm4.375 0h6.563v2.188H38.28v-2.188zM33.906 17.5h10.938v2.188H33.906V17.5zM14.219 53.594h-8.75v6.562h8.75v-6.562zm-2.188 4.375H7.656V55.78h4.375v2.188zm4.375-4.375h6.563v2.187h-6.563v-2.187zm0 4.375h6.563v2.187h-6.563V57.97zM5.469 62.344h17.5v2.187h-17.5v-2.187z" fill="#000"/><path d="M65.625 38.281h-17.5a3.285 3.285 0 00-3.281 3.282v7.656h-4.375v-10c1.881-.488 3.281-2.186 3.281-4.219 0-2.032-1.4-3.73-3.281-4.22v-6.718h5.468a3.285 3.285 0 003.282-3.28v-5.47h4.473c.523 3.1 3.218 5.47 6.464 5.47a6.57 6.57 0 006.563-6.563 6.525 6.525 0 00-.794-3.128l2.66-2.661-1.546-1.547-2.481 2.482a6.53 6.53 0 00-4.402-1.709c-3.245 0-5.94 2.37-6.464 5.469H49.22V7.656a3.285 3.285 0 00-3.282-3.281H32.813a3.285 3.285 0 00-3.282 3.281v5.469h-2.187v-1.928l-2.871-.786c-.094-.25-.198-.5-.313-.749l1.476-2.588L21.362 2.8l-2.588 1.477a11.305 11.305 0 00-.749-.313l-.784-2.87h-6.044l-.786 2.87c-.25.095-.5.199-.749.314L7.074 2.8 2.801 7.075l1.477 2.588c-.114.249-.22.498-.313.75l-2.871.784v6.044l2.87.785c.095.25.199.501.314.75L2.8 21.362l4.274 4.274 2.588-1.476c.249.114.498.219.75.313l.784 2.87h1.928v17.5h-8.75a3.285 3.285 0 00-3.281 3.281v17.5a3.285 3.285 0 003.281 3.281h19.688a3.285 3.285 0 003.28-3.281v-17.5a3.285 3.285 0 00-3.28-3.281h-8.75v-17.5h1.928l.785-2.871c.25-.094.501-.198.75-.313l2.587 1.476 4.274-4.274-1.476-2.588c.114-.248.219-.497.313-.749l2.87-.784v-1.928h2.187v5.468a3.285 3.285 0 003.282 3.282h5.468v6.717C36.4 31.27 35 32.968 35 35c0 2.033 1.4 3.73 3.281 4.22v12.186h6.563v7.657a3.285 3.285 0 003.281 3.28h17.5a3.285 3.285 0 003.281-3.28v-17.5a3.285 3.285 0 00-3.281-3.282zM60.156 9.844c1.09 0 2.077.415 2.844 1.078l-2.844 2.844-1.414-1.414-1.546 1.546 2.96 2.961 4.105-4.105c.164.46.27.949.27 1.465a4.38 4.38 0 01-4.375 4.375 4.38 4.38 0 01-4.375-4.375 4.38 4.38 0 014.375-4.375zM24.063 66.719H4.375c-.603 0-1.094-.49-1.094-1.094V51.406h21.875v14.219c0 .604-.49 1.094-1.093 1.094zm1.093-18.594v1.094H3.281v-1.094c0-.604.491-1.094 1.094-1.094h19.688c.602 0 1.093.49 1.093 1.094zm0-32.553l-2.398.656-.177.574a8.678 8.678 0 01-.626 1.5l-.28.531 1.235 2.165-1.914 1.914-2.165-1.235-.532.28c-.49.26-.995.47-1.499.626l-.574.177-.654 2.396h-2.706l-.656-2.398-.575-.177a8.678 8.678 0 01-1.5-.626l-.53-.28L7.44 22.91l-1.914-1.914L6.76 18.83l-.28-.532a8.736 8.736 0 01-.625-1.499l-.177-.574-2.397-.654v-2.706l2.399-.656.177-.575a8.684 8.684 0 01.626-1.5l.28-.53-1.235-2.163 1.914-1.914 2.164 1.235.532-.28c.491-.26.995-.47 1.5-.626l.574-.177.654-2.399h2.706l.656 2.399.574.177a8.684 8.684 0 011.5.626l.531.28 2.165-1.235 1.914 1.914-1.235 2.164.28.532c.26.491.47.995.626 1.5l.177.574 2.398.656v2.704h-.002zm7.657-9.01h13.124c.603 0 1.094.492 1.094 1.094V8.75H31.72V7.656c0-.602.49-1.093 1.093-1.093zm-1.094 14.22v-9.845H47.03v9.844c0 .603-.49 1.094-1.093 1.094H32.812a1.095 1.095 0 01-1.093-1.094zM37.187 35a2.19 2.19 0 012.188-2.188A2.19 2.19 0 0141.563 35a2.19 2.19 0 01-2.188 2.188A2.19 2.19 0 0137.187 35zm10.938 5.469h17.5c.603 0 1.094.49 1.094 1.093v1.094H47.03v-1.093c0-.604.491-1.094 1.094-1.094zm17.5 19.687h-17.5c-.603 0-1.094-.49-1.094-1.093v-14.22H66.72v14.22c0 .603-.491 1.093-1.094 1.093z" fill="#000"/><path d="M55.781 47.031H49.22v6.563h6.562V47.03zm-2.187 4.375h-2.188V49.22h2.188v2.187zm4.375-4.375h6.562v2.188H57.97V47.03zm0 4.375h6.562v2.188H57.97v-2.188zm-8.75 4.375H64.53v2.188H49.22V55.78z" fill="#000"/></svg>