<svg width="20" height="20" fill="none" xmlns="http://www.w3.org/2000/svg"><g clip-path="url(#clip0_13_788)"><path d="M14.374 20a5.573 5.573 0 01-1.912-.341A20.386 20.386 0 015.06 14.94 20.383 20.383 0 01.342 7.538a5.532 5.532 0 01-.283-2.72A5.663 5.663 0 012.975.667 5.57 5.57 0 015.64 0c.295 0 .55.206.611.494l.981 4.578a.625.625 0 01-.169.573L5.388 7.32a16.45 16.45 0 007.29 7.29l1.677-1.675a.625.625 0 01.573-.17l4.578.982a.625.625 0 01.494.61 5.57 5.57 0 01-.666 2.667 5.664 5.664 0 01-4.153 2.915 5.5 5.5 0 01-.807.06zM5.142 1.277a4.329 4.329 0 00-3.096 1.845 4.306 4.306 0 00-.53 3.989A18.956 18.956 0 0012.89 18.484a4.306 4.306 0 003.99-.53 4.33 4.33 0 001.844-3.096L15 14.06l-1.751 1.75a.625.625 0 01-.708.124A17.697 17.697 0 014.066 7.46a.625.625 0 01.123-.708l1.75-1.75-.797-3.725z" fill="#0C4C8A"/></g><defs><clipPath id="clip0_13_788"><path fill="#fff" d="M0 0h20v20H0z"/></clipPath></defs></svg>