<svg width="20" height="20" fill="none" xmlns="http://www.w3.org/2000/svg"><path d="M18.242 8.242h-2.969V4.141a2.933 2.933 0 00-2.93-2.93h-7.03a.586.586 0 00-.586.586v6.445h-2.97A1.76 1.76 0 000 10v3.516a1.76 1.76 0 001.758 1.757h2.969v2.93c0 .324.262.586.585.586h9.375a.586.586 0 00.586-.586v-2.93h2.97A1.76 1.76 0 0020 13.516V10a1.76 1.76 0 00-1.758-1.758zm-4.241-4.687H12.93V2.484c.498.176.894.572 1.07 1.07zM5.898 2.383h5.86V4.14c0 .323.262.586.586.586h1.758v3.515H5.898v-5.86zm8.204 15.234H5.898v-3.515h8.204v3.515zm4.726-4.101a.587.587 0 01-.586.586h-2.969v-.586a.586.586 0 00-.585-.586H5.312a.586.586 0 00-.585.586v.586h-2.97a.587.587 0 01-.585-.586V10c0-.323.263-.586.586-.586h16.484c.323 0 .586.263.586.586v3.516z" fill="#0C4C8A"/><path d="M14.688 11.758a.586.586 0 100-1.172.586.586 0 000 1.172zm-2.344 0a.586.586 0 100-1.172.586.586 0 000 1.172zm0 3.515H7.656a.586.586 0 000 1.172h4.688a.586.586 0 000-1.172z" fill="#0C4C8A"/></svg>