<svg width="68" height="60" fill="none" xmlns="http://www.w3.org/2000/svg"><path d="M35.094.469v13.235a5.54 5.54 0 00-2.188 0V.47H.094v59.06h32.812V46.296a5.54 5.54 0 002.188 0V59.53h32.812V.47H35.094zM34 15.78a3.285 3.285 0 013.281 3.281A3.285 3.285 0 0134 22.345a3.285 3.285 0 01-3.281-3.282A3.285 3.285 0 0134 15.783zm3.281 20.695v-12.72l6.624 6.699-6.624 6.021zM35.094 24.42v11.157a5.463 5.463 0 00-2.188.001V24.421a5.54 5.54 0 002.188 0zm-4.375 12.055L23.595 30l7.124-6.476v12.952zm0 20.868H2.28V2.656h28.44V14.69a5.462 5.462 0 00-2.188 4.373c0 1.019.288 1.97.776 2.788l-7.338 6.67-7.348-6.68c.488-.817.785-1.76.785-2.779a5.475 5.475 0 00-5.469-5.468 5.475 5.475 0 00-5.468 5.469 5.475 5.475 0 005.468 5.468c1.206 0 2.31-.404 3.216-1.067L20.343 30l-7.19 6.536a5.423 5.423 0 00-3.216-1.067 5.475 5.475 0 00-5.468 5.468 5.475 5.475 0 005.468 5.47 5.475 5.475 0 005.47-5.47 5.414 5.414 0 00-.786-2.779l7.348-6.68 7.338 6.672a5.425 5.425 0 00-.776 2.788 5.46 5.46 0 002.188 4.372v12.034zm-20.782-35a3.285 3.285 0 01-3.28-3.282 3.285 3.285 0 013.28-3.28 3.285 3.285 0 013.282 3.28 3.285 3.285 0 01-3.281 3.282zm3.282 18.593a3.285 3.285 0 01-3.281 3.282 3.285 3.285 0 01-3.282-3.282 3.285 3.285 0 013.282-3.28 3.285 3.285 0 013.28 3.28zM34 44.22a3.285 3.285 0 01-3.281-3.282A3.285 3.285 0 0134 37.657a3.285 3.285 0 013.281 3.28A3.285 3.285 0 0134 44.22zm31.719 13.125H37.28V45.31a5.462 5.462 0 002.188-4.373c0-1.019-.288-1.97-.776-2.787l6.752-6.139 9.642 9.75a3.24 3.24 0 00-.306 1.364 3.285 3.285 0 003.282 3.281 3.285 3.285 0 003.28-3.281 3.285 3.285 0 00-3.28-3.281c-.522 0-1.01.133-1.449.35l-9.55-9.656 7.783-7.075a5.417 5.417 0 003.215 1.068 5.475 5.475 0 005.47-5.468 5.475 5.475 0 00-5.47-5.47 5.475 5.475 0 00-5.468 5.47 5.41 5.41 0 00.785 2.779l-7.854 7.14-6.914-6.991c.54-.848.858-1.851.858-2.928a5.46 5.46 0 00-2.188-4.373V2.656h28.44v54.688zM58.063 42.03a1.095 1.095 0 010 2.188 1.095 1.095 0 010-2.188zM54.78 19.063a3.285 3.285 0 013.282-3.282 3.285 3.285 0 013.28 3.281 3.285 3.285 0 01-3.28 3.282 3.285 3.285 0 01-3.282-3.282z" fill="#000"/><path d="M4.469 9.219h2.187v2.187H4.47V9.22zm4.375 0H28.53v2.187H8.844V9.22zM4.469 55.156H28.53v-6.562H4.47v6.562zm2.187-4.375h19.688v2.188H6.656V50.78zM63.531 4.844H39.47v6.562h24.06V4.844zm-2.187 4.375H41.656V7.03h19.688v2.19zM4.469 4.844H28.53V7.03H4.47V4.844zm35 43.75h2.187v2.187H39.47v-2.187zm4.375 0H63.53v2.187H43.844v-2.187zm-4.375 4.375H63.53v2.187H39.47V52.97z" fill="#000"/></svg>