<svg width="70" height="70" fill="none" xmlns="http://www.w3.org/2000/svg"><path d="M30.333 33.833h-7v16.334h2.333v-7h4.667A4.68 4.68 0 0035 38.5a4.68 4.68 0 00-4.667-4.667zm0 7h-4.667v-4.666h4.667c1.4 0 2.333.933 2.333 2.333 0 1.4-.933 2.334-2.333 2.334zm14-7h-7v16.334h7A4.68 4.68 0 0049 45.5v-7a4.68 4.68 0 00-4.667-4.667zM46.666 45.5c0 1.4-.933 2.334-2.333 2.334h-4.667V36.166h4.667c1.4 0 2.333.933 2.333 2.333v7z" fill="#0C4C8A"/><path d="M63 26.834H44.333v-7l-14-16.334H4.667A4.68 4.68 0 000 8.167v53.666A4.68 4.68 0 004.667 66.5h35a4.68 4.68 0 004.666-4.666v-4.667H63c3.967 0 7-3.034 7-7V33.833c0-3.966-3.033-7-7-7zM30.333 7L41.3 19.834h-8.633c-1.167 0-2.334-1.167-2.334-2.334V7zM42 61.833c0 1.167-.933 2.334-2.333 2.334h-35c-1.167 0-2.334-.934-2.334-2.334V8.167c0-1.167.934-2.334 2.334-2.334H28V17.5a4.68 4.68 0 004.667 4.667H42v4.666H23.333c-3.966 0-7 3.034-7 7v16.334c0 3.966 3.034 7 7 7H42v4.666zm25.667-11.666A4.68 4.68 0 0163 54.833H23.333a4.68 4.68 0 01-4.666-4.666V33.833a4.68 4.68 0 014.666-4.666H63a4.68 4.68 0 014.667 4.666v16.334z" fill="#0C4C8A"/><path d="M51.333 50.167h2.333v-7h7v-2.334h-7v-4.666H63v-2.334H51.333v16.334z" fill="#0C4C8A"/></svg>