<svg width="20" height="20" fill="none" xmlns="http://www.w3.org/2000/svg"><path d="M19.91 15.942l-.1-.3c-.235-.7-1.008-1.432-1.718-1.624l-2.628-.718c-.712-.194-1.729.066-2.25.588l-.95.951a10.088 10.088 0 01-7.1-7.1l.951-.952c.522-.521.782-1.537.589-2.25l-.717-2.629C5.793 1.197 5.061.424 4.362.191l-.3-.101c-.701-.233-1.7.003-2.222.524L.418 2.038C.163 2.291 0 3.014 0 3.017A16.805 16.805 0 004.917 15.08 16.804 16.804 0 0016.942 20c.023 0 .767-.16 1.022-.412l1.422-1.423c.521-.522.757-1.521.524-2.222z" fill="#0C4C8A"/></svg>