<svg width="70" height="70" fill="none" xmlns="http://www.w3.org/2000/svg"><g clip-path="url(#clip0_9_121)" fill="#000"><path d="M20.417 40.833C9.16 40.833 0 31.673 0 20.417S9.161 0 20.417 0c11.255 0 20.416 9.161 20.416 20.417 0 11.255-9.16 20.416-20.416 20.416zm0-37.916c-9.652 0-17.5 7.848-17.5 17.5 0 9.65 7.848 17.5 17.5 17.5 9.65 0 17.5-7.85 17.5-17.5 0-9.652-7.85-17.5-17.5-17.5z"/><path d="M21.875 30.625h-7.292a1.459 1.459 0 010-2.917h7.292a2.918 2.918 0 000-5.833h-2.917a5.84 5.84 0 01-5.833-5.833 5.84 5.84 0 015.833-5.834h7.292a1.459 1.459 0 010 2.917h-7.292a2.918 2.918 0 000 5.833h2.917a5.84 5.84 0 015.833 5.834 5.84 5.84 0 01-5.833 5.833z"/><path d="M20.417 35a1.459 1.459 0 01-1.459-1.458v-4.375a1.459 1.459 0 012.917 0v4.375c0 .805-.653 1.458-1.458 1.458zm0-21.875a1.459 1.459 0 01-1.459-1.458V7.292a1.459 1.459 0 012.917 0v4.375c0 .805-.653 1.458-1.458 1.458zM32.812 70c-7.638 0-13.854-6.215-13.854-13.854V39.375a1.459 1.459 0 012.917 0v16.77c0 6.03 4.909 10.938 10.937 10.938 6.03 0 10.938-4.908 10.938-10.937V14.583c0-4.824 3.926-8.75 8.75-8.75s8.75 3.926 8.75 8.75v30.625a1.459 1.459 0 01-2.917 0V14.583A5.84 5.84 0 0052.5 8.75a5.84 5.84 0 00-5.833 5.833v41.563C46.667 63.785 40.45 70 32.812 70z"/><path d="M59.792 70c-5.63 0-10.209-4.58-10.209-10.208V48.125a4.38 4.38 0 014.375-4.375h11.667A4.38 4.38 0 0170 48.125v11.667C70 65.42 65.42 70 59.792 70zm-5.834-23.333c-.802 0-1.458.656-1.458 1.458v11.667a7.298 7.298 0 007.292 7.291 7.298 7.298 0 007.291-7.291V48.125c0-.802-.656-1.458-1.458-1.458H53.958z"/></g><defs><clipPath id="clip0_9_121"><path fill="#fff" d="M0 0h70v70H0z"/></clipPath></defs></svg>