<svg width="68" height="58" viewBox="0 0 68 58" fill="none" xmlns="http://www.w3.org/2000/svg">
<path d="M64.0781 0.5625H3.92188C2.90694 0.563622 1.93389 0.967301 1.21622 1.68497C0.498551 2.40264 0.0948718 3.37569 0.09375 4.39062V53.6094C0.0948718 54.6243 0.498551 55.5974 1.21622 56.315C1.93389 57.0327 2.90694 57.4364 3.92188 57.4375H64.0781C65.0931 57.4364 66.0661 57.0327 66.7838 56.315C67.5014 55.5974 67.9051 54.6243 67.9062 53.6094V4.39062C67.9051 3.37569 67.5014 2.40264 66.7838 1.68497C66.0661 0.967301 65.0931 0.563622 64.0781 0.5625ZM65.7188 53.6094C65.7184 54.0444 65.5454 54.4615 65.2378 54.7691C64.9302 55.0767 64.5131 55.2496 64.0781 55.25H3.92188C3.48687 55.2496 3.06978 55.0767 2.76218 54.7691C2.45458 54.4615 2.28161 54.0444 2.28125 53.6094V9.3125H65.7188V53.6094ZM65.7188 7.125H2.28125V4.39062C2.28161 3.95562 2.45458 3.53853 2.76218 3.23093C3.06978 2.92333 3.48687 2.75036 3.92188 2.75H64.0781C64.5131 2.75036 64.9302 2.92333 65.2378 3.23093C65.5454 3.53853 65.7184 3.95562 65.7188 4.39062V7.125Z" fill="black"/>
<path d="M4.46875 6.03125H5.5625C5.85258 6.03125 6.13078 5.91602 6.3359 5.7109C6.54102 5.50578 6.65625 5.22758 6.65625 4.9375C6.65625 4.64742 6.54102 4.36922 6.3359 4.1641C6.13078 3.95898 5.85258 3.84375 5.5625 3.84375H4.46875C4.17867 3.84375 3.90047 3.95898 3.69535 4.1641C3.49023 4.36922 3.375 4.64742 3.375 4.9375C3.375 5.22758 3.49023 5.50578 3.69535 5.7109C3.90047 5.91602 4.17867 6.03125 4.46875 6.03125Z" fill="black"/>
<path d="M8.84375 6.03125H9.9375C10.2276 6.03125 10.5058 5.91602 10.7109 5.7109C10.916 5.50578 11.0312 5.22758 11.0312 4.9375C11.0312 4.64742 10.916 4.36922 10.7109 4.1641C10.5058 3.95898 10.2276 3.84375 9.9375 3.84375H8.84375C8.55367 3.84375 8.27547 3.95898 8.07035 4.1641C7.86523 4.36922 7.75 4.64742 7.75 4.9375C7.75 5.22758 7.86523 5.50578 8.07035 5.7109C8.27547 5.91602 8.55367 6.03125 8.84375 6.03125Z" fill="black"/>
<path d="M13.2188 6.03125H14.3125C14.6026 6.03125 14.8808 5.91602 15.0859 5.7109C15.291 5.50578 15.4062 5.22758 15.4062 4.9375C15.4062 4.64742 15.291 4.36922 15.0859 4.1641C14.8808 3.95898 14.6026 3.84375 14.3125 3.84375H13.2188C12.9287 3.84375 12.6505 3.95898 12.4454 4.1641C12.2402 4.36922 12.125 4.64742 12.125 4.9375C12.125 5.22758 12.2402 5.50578 12.4454 5.7109C12.6505 5.91602 12.9287 6.03125 13.2188 6.03125Z" fill="black"/>
<path d="M24.1562 12.5938H6.65625C6.36617 12.5938 6.08797 12.709 5.88285 12.9141C5.67773 13.1192 5.5625 13.3974 5.5625 13.6875V31.1875C5.5625 31.4776 5.67773 31.7558 5.88285 31.9609C6.08797 32.166 6.36617 32.2812 6.65625 32.2812H24.1562C24.4463 32.2812 24.7245 32.166 24.9296 31.9609C25.1348 31.7558 25.25 31.4776 25.25 31.1875V13.6875C25.25 13.3974 25.1348 13.1192 24.9296 12.9141C24.7245 12.709 24.4463 12.5938 24.1562 12.5938ZM23.0625 30.0938H7.75V14.7812H23.0625V30.0938Z" fill="black"/>
<path d="M20.6644 27.5111L16.4262 16.5736C16.3468 16.3688 16.2076 16.1925 16.0266 16.0679C15.8457 15.9433 15.6314 15.8761 15.4117 15.875H15.4062C15.1876 15.8751 14.974 15.9406 14.7929 16.0632C14.6119 16.1857 14.4717 16.3597 14.3904 16.5627L10.0154 27.5002C9.96208 27.6336 9.93556 27.7762 9.93734 27.9198C9.93913 28.0635 9.96919 28.2054 10.0258 28.3374C10.0824 28.4695 10.1645 28.589 10.2673 28.6894C10.3702 28.7897 10.4918 28.8688 10.6252 28.9221C10.7586 28.9754 10.9012 29.0019 11.0448 29.0001C11.1885 28.9984 11.3304 28.9683 11.4624 28.9117C11.5944 28.8551 11.714 28.773 11.8143 28.6701C11.9146 28.5673 11.9937 28.4457 12.047 28.3123L13.5222 24.625H17.2L18.6246 28.3014C18.6765 28.4353 18.7542 28.5577 18.8534 28.6616C18.9526 28.7655 19.0713 28.8488 19.2027 28.9068C19.3341 28.9649 19.4756 28.9964 19.6192 28.9997C19.7628 29.0031 19.9057 28.9781 20.0396 28.9262C20.1736 28.8743 20.296 28.7965 20.3999 28.6973C20.5037 28.5981 20.5871 28.4795 20.6451 28.3481C20.7031 28.2167 20.7347 28.0751 20.738 27.9315C20.7413 27.7879 20.7163 27.6451 20.6644 27.5111ZM14.3972 22.4375L15.3898 19.9547L16.3523 22.4375H14.3972Z" fill="black"/>
<path d="M61.3438 32.2812H43.8438C43.5537 32.2812 43.2755 32.3965 43.0704 32.6016C42.8652 32.8067 42.75 33.0849 42.75 33.375V50.875C42.75 51.1651 42.8652 51.4433 43.0704 51.6484C43.2755 51.8535 43.5537 51.9688 43.8438 51.9688H61.3438C61.6338 51.9688 61.912 51.8535 62.1171 51.6484C62.3223 51.4433 62.4375 51.1651 62.4375 50.875V33.375C62.4375 33.0849 62.3223 32.8067 62.1171 32.6016C61.912 32.3965 61.6338 32.2812 61.3438 32.2812ZM60.25 49.7812H44.9375V34.4688H60.25V49.7812Z" fill="black"/>
<path d="M54.5871 39.9539C54.7161 39.598 54.7818 39.2223 54.7812 38.8438C54.7801 37.9739 54.434 37.1399 53.8189 36.5248C53.2038 35.9097 52.3699 35.5637 51.5 35.5625H48.2188C47.9287 35.5625 47.6505 35.6777 47.4454 35.8829C47.2402 36.088 47.125 36.3662 47.125 36.6562V47.5938C47.125 47.8838 47.2402 48.162 47.4454 48.3671C47.6505 48.5723 47.9287 48.6875 48.2188 48.6875H54.2344C55.2493 48.6864 56.2224 48.2827 56.94 47.565C57.6577 46.8474 58.0614 45.8743 58.0625 44.8594V43.7656C58.0611 42.8118 57.7043 41.8928 57.0617 41.1879C56.419 40.4831 55.5367 40.0431 54.5871 39.9539ZM49.3125 37.75H51.5C51.7901 37.75 52.0683 37.8652 52.2734 38.0704C52.4785 38.2755 52.5938 38.5537 52.5938 38.8438C52.5938 39.1338 52.4785 39.412 52.2734 39.6171C52.0683 39.8223 51.7901 39.9375 51.5 39.9375H49.3125V37.75ZM55.875 44.8594C55.8746 45.2944 55.7017 45.7115 55.3941 46.0191C55.0865 46.3267 54.6694 46.4996 54.2344 46.5H49.3125V42.125H54.2344C54.6694 42.1254 55.0865 42.2983 55.3941 42.6059C55.7017 42.9135 55.8746 43.3306 55.875 43.7656V44.8594Z" fill="black"/>
<path d="M27.4375 23.5312H51.5V30.0938C51.5 30.3838 51.6152 30.662 51.8204 30.8671C52.0255 31.0723 52.3037 31.1875 52.5938 31.1875C52.8838 31.1875 53.162 31.0723 53.3671 30.8671C53.5723 30.662 53.6875 30.3838 53.6875 30.0938V22.4375C53.6875 22.1474 53.5723 21.8692 53.3671 21.6641C53.162 21.459 52.8838 21.3438 52.5938 21.3438H27.4375C27.1474 21.3438 26.8692 21.459 26.6641 21.6641C26.459 21.8692 26.3438 22.1474 26.3438 22.4375C26.3438 22.7276 26.459 23.0058 26.6641 23.2109C26.8692 23.416 27.1474 23.5312 27.4375 23.5312Z" fill="black"/>
<path d="M40.5625 41.0312H16.5V34.4688C16.5 34.1787 16.3848 33.9005 16.1796 33.6954C15.9745 33.4902 15.6963 33.375 15.4062 33.375C15.1162 33.375 14.838 33.4902 14.6329 33.6954C14.4277 33.9005 14.3125 34.1787 14.3125 34.4688V42.125C14.3125 42.4151 14.4277 42.6933 14.6329 42.8984C14.838 43.1035 15.1162 43.2188 15.4062 43.2188H40.5625C40.8526 43.2188 41.1308 43.1035 41.3359 42.8984C41.541 42.6933 41.6562 42.4151 41.6562 42.125C41.6562 41.8349 41.541 41.5567 41.3359 41.3516C41.1308 41.1465 40.8526 41.0312 40.5625 41.0312Z" fill="black"/>
</svg>
