<svg width="70" height="70" viewBox="0 0 70 70" fill="none" xmlns="http://www.w3.org/2000/svg">
<path d="M14.2188 7.65625C10.5995 7.65625 7.65625 10.5995 7.65625 14.2188C7.65625 17.838 10.5995 20.7812 14.2188 20.7812C17.838 20.7812 20.7812 17.838 20.7812 14.2188C20.7812 10.5995 17.838 7.65625 14.2188 7.65625ZM14.2188 18.5938C11.8059 18.5938 9.84375 16.6316 9.84375 14.2188C9.84375 11.8059 11.8059 9.84375 14.2188 9.84375C16.6316 9.84375 18.5938 11.8059 18.5938 14.2188C18.5938 16.6316 16.6316 18.5938 14.2188 18.5938Z" fill="black"/>
<path d="M33.9062 13.125H36.0938V15.3125H33.9062V13.125Z" fill="black"/>
<path d="M38.2812 13.125H44.8438V15.3125H38.2812V13.125Z" fill="black"/>
<path d="M33.9062 17.5H44.8438V19.6875H33.9062V17.5Z" fill="black"/>
<path d="M14.2188 53.5938H5.46875V60.1562H14.2188V53.5938ZM12.0312 57.9688H7.65625V55.7812H12.0312V57.9688Z" fill="black"/>
<path d="M16.4062 53.5938H22.9688V55.7812H16.4062V53.5938Z" fill="black"/>
<path d="M16.4062 57.9688H22.9688V60.1562H16.4062V57.9688Z" fill="black"/>
<path d="M5.46875 62.3438H22.9688V64.5312H5.46875V62.3438Z" fill="black"/>
<path d="M65.625 38.2812H48.125C46.3159 38.2812 44.8438 39.7534 44.8438 41.5625V49.2188H40.4688V39.2197C42.35 38.7308 43.75 37.0333 43.75 35C43.75 32.9678 42.35 31.2692 40.4688 30.7803V24.0625H45.9375C47.7466 24.0625 49.2188 22.5903 49.2188 20.7812V15.3125H53.6922C54.215 18.4111 56.91 20.7812 60.1562 20.7812C63.7755 20.7812 66.7188 17.838 66.7188 14.2188C66.7188 13.0867 66.4311 12.0214 65.9247 11.0906L68.5858 8.42953L67.0392 6.88297L64.5575 9.36469C63.3916 8.30703 61.8505 7.65625 60.1562 7.65625C56.9111 7.65625 54.2161 10.0264 53.6922 13.125H49.2188V7.65625C49.2188 5.84719 47.7466 4.375 45.9375 4.375H32.8125C31.0034 4.375 29.5312 5.84719 29.5312 7.65625V13.125H27.3438V11.1967L24.4727 10.4114C24.3786 10.1609 24.2747 9.91047 24.1598 9.66219L25.6364 7.07438L21.362 2.8L18.7742 4.27656C18.5259 4.16281 18.2766 4.05781 18.025 3.96375L17.2408 1.09375H11.1967L10.4114 3.96484C10.1609 4.05891 9.91047 4.16281 9.66219 4.27766L7.07438 2.80109L2.80109 7.07547L4.27766 9.66328C4.16391 9.91156 4.05891 10.1609 3.96484 10.4125L1.09375 11.1967V17.2408L3.96484 18.0261C4.05891 18.2766 4.16281 18.527 4.27766 18.7753L2.80109 21.3631L7.07547 25.6375L9.66328 24.1609C9.91156 24.2747 10.1609 24.3797 10.4125 24.4737L11.1967 27.3438H13.125V44.8438H4.375C2.56594 44.8438 1.09375 46.3159 1.09375 48.125V65.625C1.09375 67.4341 2.56594 68.9062 4.375 68.9062H24.0625C25.8716 68.9062 27.3438 67.4341 27.3438 65.625V48.125C27.3438 46.3159 25.8716 44.8438 24.0625 44.8438H15.3125V27.3438H17.2408L18.0261 24.4727C18.2766 24.3786 18.527 24.2747 18.7753 24.1598L21.3631 25.6364L25.6375 21.362L24.1609 18.7742C24.2747 18.5259 24.3797 18.2766 24.4737 18.025L27.3438 17.2408V15.3125H29.5312V20.7812C29.5312 22.5903 31.0034 24.0625 32.8125 24.0625H38.2812V30.7803C36.4 31.2692 35 32.9678 35 35C35 37.0333 36.4 38.7308 38.2812 39.2197V51.4062H44.8438V59.0625C44.8438 60.8716 46.3159 62.3438 48.125 62.3438H65.625C67.4341 62.3438 68.9062 60.8716 68.9062 59.0625V41.5625C68.9062 39.7534 67.4341 38.2812 65.625 38.2812ZM60.1562 9.84375C61.2467 9.84375 62.2333 10.2594 63 10.9222L60.1562 13.7659L58.742 12.3517L57.1955 13.8983L60.1562 16.8591L64.2611 12.7542C64.4252 13.2147 64.5312 13.7025 64.5312 14.2188C64.5312 16.6316 62.5691 18.5938 60.1562 18.5938C57.7434 18.5938 55.7812 16.6316 55.7812 14.2188C55.7812 11.8059 57.7434 9.84375 60.1562 9.84375ZM24.0625 66.7188H4.375C3.77234 66.7188 3.28125 66.2288 3.28125 65.625V51.4062H25.1562V65.625C25.1562 66.2288 24.6652 66.7188 24.0625 66.7188ZM25.1562 48.125V49.2188H3.28125V48.125C3.28125 47.5213 3.77234 47.0312 4.375 47.0312H24.0625C24.6652 47.0312 25.1562 47.5213 25.1562 48.125ZM25.1562 15.5717L22.7577 16.228L22.5805 16.8022C22.4252 17.3053 22.2152 17.8106 21.9548 18.3017L21.6748 18.8333L22.9097 20.9978L20.9956 22.9119L18.8311 21.677L18.2995 21.957C17.8084 22.2163 17.3042 22.4273 16.8 22.5827L16.2258 22.7598L15.5717 25.1562H12.8658L12.2095 22.7577L11.6353 22.5805C11.1322 22.4252 10.6269 22.2152 10.1358 21.9548L9.60422 21.6748L7.43969 22.9097L5.52563 20.9956L6.76047 18.8311L6.48047 18.2995C6.22125 17.8084 6.01016 17.3042 5.85484 16.8L5.67766 16.2258L3.28125 15.5717V12.8658L5.67984 12.2095L5.85703 11.6353C6.01234 11.1322 6.22234 10.6269 6.48266 10.1358L6.76266 9.60422L5.52781 7.44187L7.44187 5.52781L9.60641 6.76266L10.138 6.48266C10.6291 6.22344 11.1333 6.01234 11.6375 5.85703L12.2117 5.67984L12.8658 3.28125H15.5717L16.228 5.67984L16.8022 5.85703C17.3053 6.01234 17.8106 6.22234 18.3017 6.48266L18.8333 6.76266L20.9978 5.52781L22.9119 7.44187L21.677 9.60641L21.957 10.138C22.2163 10.6291 22.4273 11.1333 22.5827 11.6375L22.7598 12.2117L25.1584 12.868V15.5717H25.1562ZM32.8125 6.5625H45.9375C46.5402 6.5625 47.0312 7.05359 47.0312 7.65625V8.75H31.7188V7.65625C31.7188 7.05359 32.2098 6.5625 32.8125 6.5625ZM31.7188 20.7812V10.9375H47.0312V20.7812C47.0312 21.3839 46.5402 21.875 45.9375 21.875H32.8125C32.2098 21.875 31.7188 21.3839 31.7188 20.7812ZM37.1875 35C37.1875 33.7936 38.1686 32.8125 39.375 32.8125C40.5814 32.8125 41.5625 33.7936 41.5625 35C41.5625 36.2064 40.5814 37.1875 39.375 37.1875C38.1686 37.1875 37.1875 36.2064 37.1875 35ZM48.125 40.4688H65.625C66.2277 40.4688 66.7188 40.9588 66.7188 41.5625V42.6562H47.0312V41.5625C47.0312 40.9588 47.5223 40.4688 48.125 40.4688ZM65.625 60.1562H48.125C47.5223 60.1562 47.0312 59.6662 47.0312 59.0625V44.8438H66.7188V59.0625C66.7188 59.6662 66.2277 60.1562 65.625 60.1562Z" fill="black"/>
<path d="M55.7812 47.0312H49.2188V53.5938H55.7812V47.0312ZM53.5938 51.4062H51.4062V49.2188H53.5938V51.4062Z" fill="black"/>
<path d="M57.9688 47.0312H64.5312V49.2188H57.9688V47.0312Z" fill="black"/>
<path d="M57.9688 51.4062H64.5312V53.5938H57.9688V51.4062Z" fill="black"/>
<path d="M49.2188 55.7812H64.5312V57.9688H49.2188V55.7812Z" fill="black"/>
</svg>
