<svg width="20" height="20" viewBox="0 0 20 20" fill="none" xmlns="http://www.w3.org/2000/svg">
<path d="M18.2422 8.24219H15.2734V4.14062C15.2734 2.5252 13.9592 1.21094 12.3438 1.21094H5.3125C4.98891 1.21094 4.72656 1.47328 4.72656 1.79688V8.24219H1.75781C0.788555 8.24219 0 9.03074 0 10V13.5156C0 14.4849 0.788555 15.2734 1.75781 15.2734H4.72656V18.2031C4.72656 18.5267 4.98891 18.7891 5.3125 18.7891H14.6875C15.0111 18.7891 15.2734 18.5267 15.2734 18.2031V15.2734H18.2422C19.2114 15.2734 20 14.4849 20 13.5156V10C20 9.03074 19.2114 8.24219 18.2422 8.24219ZM14.0008 3.55469H12.9297V2.48359C13.4283 2.66043 13.8239 3.05609 14.0008 3.55469ZM5.89844 2.38281H11.7578V4.14062C11.7578 4.46422 12.0202 4.72656 12.3438 4.72656H14.1016V8.24219H5.89844V2.38281ZM14.1016 17.6172H5.89844V14.1016H14.1016V17.6172ZM18.8281 13.5156C18.8281 13.8387 18.5653 14.1016 18.2422 14.1016H15.2734V13.5156C15.2734 13.192 15.0111 12.9297 14.6875 12.9297H5.3125C4.98891 12.9297 4.72656 13.192 4.72656 13.5156V14.1016H1.75781C1.43473 14.1016 1.17188 13.8387 1.17188 13.5156V10C1.17188 9.67691 1.43473 9.41406 1.75781 9.41406H18.2422C18.5653 9.41406 18.8281 9.67691 18.8281 10V13.5156Z" fill="#0C4C8A"/>
<path d="M14.6875 11.7578C15.0111 11.7578 15.2734 11.4955 15.2734 11.1719C15.2734 10.8483 15.0111 10.5859 14.6875 10.5859C14.3639 10.5859 14.1016 10.8483 14.1016 11.1719C14.1016 11.4955 14.3639 11.7578 14.6875 11.7578Z" fill="#0C4C8A"/>
<path d="M12.3438 11.7578C12.6674 11.7578 12.9297 11.4955 12.9297 11.1719C12.9297 10.8483 12.6674 10.5859 12.3438 10.5859C12.0201 10.5859 11.7578 10.8483 11.7578 11.1719C11.7578 11.4955 12.0201 11.7578 12.3438 11.7578Z" fill="#0C4C8A"/>
<path d="M12.3438 15.2734H7.65625C7.33266 15.2734 7.07031 15.5358 7.07031 15.8594C7.07031 16.183 7.33266 16.4453 7.65625 16.4453H12.3438C12.6673 16.4453 12.9297 16.183 12.9297 15.8594C12.9297 15.5358 12.6673 15.2734 12.3438 15.2734Z" fill="#0C4C8A"/>
</svg>
