<svg width="68" height="60" viewBox="0 0 68 60" fill="none" xmlns="http://www.w3.org/2000/svg">
<path d="M35.0938 0.46875V13.7042C34.3872 13.5588 33.6128 13.5588 32.9062 13.7042V0.46875H0.09375V59.5312H32.9062V46.2958C33.6128 46.4412 34.3872 46.4412 35.0938 46.2958V59.5312H67.9062V0.46875H35.0938ZM34 15.7812C35.8091 15.7812 37.2812 17.2534 37.2812 19.0625C37.2812 20.8716 35.8091 22.3438 34 22.3438C32.1909 22.3438 30.7188 20.8716 30.7188 19.0625C30.7188 17.2534 32.1909 15.7812 34 15.7812ZM37.2812 36.4761V23.7569L43.905 30.455L37.2812 36.4761ZM35.0938 24.4208V35.5781C34.7405 35.5059 34.3741 35.4688 34 35.4688C33.6259 35.4688 33.2595 35.5059 32.9062 35.5792V24.4208C33.6128 24.5662 34.3872 24.5662 35.0938 24.4208ZM30.7188 36.4761L23.5952 30L30.7188 23.5239V36.4761ZM30.7188 57.3438H2.28125V2.65625H30.7188V14.6897C29.3909 15.6883 28.5312 17.2764 28.5312 19.0625C28.5312 20.0819 28.8189 21.0323 29.3067 21.8505L21.9688 28.5213L14.6209 21.8417C15.1087 21.0236 15.4062 20.0808 15.4062 19.0625C15.4062 16.047 12.953 13.5938 9.9375 13.5938C6.92203 13.5938 4.46875 16.047 4.46875 19.0625C4.46875 22.078 6.92203 24.5312 9.9375 24.5312C11.1428 24.5312 12.2475 24.1266 13.1531 23.4638L20.3423 30L13.1531 36.5363C12.2475 35.8734 11.1428 35.4688 9.9375 35.4688C6.92203 35.4688 4.46875 37.922 4.46875 40.9375C4.46875 43.953 6.92203 46.4062 9.9375 46.4062C12.953 46.4062 15.4062 43.953 15.4062 40.9375C15.4062 39.9192 15.1077 38.9764 14.6209 38.1583L21.9688 31.4788L29.3067 38.1495C28.8189 38.9677 28.5312 39.9181 28.5312 40.9375C28.5312 42.7236 29.3909 44.3117 30.7188 45.3103V57.3438ZM9.9375 22.3438C8.12844 22.3438 6.65625 20.8716 6.65625 19.0625C6.65625 17.2534 8.12844 15.7812 9.9375 15.7812C11.7466 15.7812 13.2188 17.2534 13.2188 19.0625C13.2188 20.8716 11.7466 22.3438 9.9375 22.3438ZM13.2188 40.9375C13.2188 42.7466 11.7466 44.2188 9.9375 44.2188C8.12844 44.2188 6.65625 42.7466 6.65625 40.9375C6.65625 39.1284 8.12844 37.6562 9.9375 37.6562C11.7466 37.6562 13.2188 39.1284 13.2188 40.9375ZM34 44.2188C32.1909 44.2188 30.7188 42.7466 30.7188 40.9375C30.7188 39.1284 32.1909 37.6562 34 37.6562C35.8091 37.6562 37.2812 39.1284 37.2812 40.9375C37.2812 42.7466 35.8091 44.2188 34 44.2188ZM65.7188 57.3438H37.2812V45.3103C38.6091 44.3117 39.4688 42.7236 39.4688 40.9375C39.4688 39.9181 39.1811 38.9677 38.6933 38.1495L45.445 32.0114L55.0875 41.7611C54.895 42.1778 54.7812 42.6372 54.7812 43.125C54.7812 44.9341 56.2534 46.4062 58.0625 46.4062C59.8716 46.4062 61.3438 44.9341 61.3438 43.125C61.3438 41.3159 59.8716 39.8438 58.0625 39.8438C57.5408 39.8438 57.053 39.9772 56.6144 40.1948L47.0648 30.5381L54.8469 23.4627C55.7525 24.1266 56.8572 24.5312 58.0625 24.5312C61.078 24.5312 63.5312 22.078 63.5312 19.0625C63.5312 16.047 61.078 13.5938 58.0625 13.5938C55.047 13.5938 52.5938 16.047 52.5938 19.0625C52.5938 20.0808 52.8923 21.0247 53.3791 21.8417L45.5248 28.9817L38.6112 21.9905C39.1516 21.1428 39.4688 20.1398 39.4688 19.0625C39.4688 17.2764 38.6091 15.6883 37.2812 14.6897V2.65625H65.7188V57.3438ZM58.0625 42.0312C58.6652 42.0312 59.1562 42.5213 59.1562 43.125C59.1562 43.7287 58.6652 44.2188 58.0625 44.2188C57.4598 44.2188 56.9688 43.7287 56.9688 43.125C56.9688 42.5213 57.4598 42.0312 58.0625 42.0312ZM54.7812 19.0625C54.7812 17.2534 56.2534 15.7812 58.0625 15.7812C59.8716 15.7812 61.3438 17.2534 61.3438 19.0625C61.3438 20.8716 59.8716 22.3438 58.0625 22.3438C56.2534 22.3438 54.7812 20.8716 54.7812 19.0625Z" fill="black"/>
<path d="M4.46875 9.21875H6.65625V11.4062H4.46875V9.21875Z" fill="black"/>
<path d="M8.84375 9.21875H28.5312V11.4062H8.84375V9.21875Z" fill="black"/>
<path d="M4.46875 55.1562H28.5312V48.5938H4.46875V55.1562ZM6.65625 50.7812H26.3438V52.9688H6.65625V50.7812Z" fill="black"/>
<path d="M63.5312 4.84375H39.4688V11.4062H63.5312V4.84375ZM61.3438 9.21875H41.6562V7.03125H61.3438V9.21875Z" fill="black"/>
<path d="M4.46875 4.84375H28.5312V7.03125H4.46875V4.84375Z" fill="black"/>
<path d="M39.4688 48.5938H41.6562V50.7812H39.4688V48.5938Z" fill="black"/>
<path d="M43.8438 48.5938H63.5312V50.7812H43.8438V48.5938Z" fill="black"/>
<path d="M39.4688 52.9688H63.5312V55.1562H39.4688V52.9688Z" fill="black"/>
</svg>
