<svg width="70" height="70" viewBox="0 0 70 70" fill="none" xmlns="http://www.w3.org/2000/svg">
<path d="M30.333 33.8334H23.333V38.5V50.1667H25.6663V43.1667H30.333C32.8996 43.1667 34.9997 41.0666 34.9997 38.5C34.9997 35.9334 32.8996 33.8334 30.333 33.8334ZM30.333 40.8335H25.6663V36.1668H30.333C31.733 36.1668 32.6663 37.1002 32.6663 38.5002C32.6663 39.9002 31.733 40.8335 30.333 40.8335Z" fill="#0C4C8A"/>
<path d="M44.333 33.8334H37.333V50.1667H44.333C46.8996 50.1667 48.9997 48.0667 48.9997 45.5V38.5C48.9997 35.9334 46.8996 33.8334 44.333 33.8334ZM46.6663 45.5002C46.6663 46.9002 45.733 47.8335 44.333 47.8335H39.6663V36.1668H44.333C45.733 36.1668 46.6663 37.1002 46.6663 38.5002V45.5002Z" fill="#0C4C8A"/>
<path d="M63 26.8335H44.3333V19.8335L30.3333 3.50012H4.66667C2.09994 3.50012 0 5.60006 0 8.16679V61.8335C0 64.4001 2.09994 66.5001 4.66667 66.5001H39.6667C42.2333 66.5001 44.3333 64.4001 44.3333 61.8335V57.1668H63C66.9667 57.1668 70 54.1335 70 50.1668V33.8333C70 29.8667 66.9667 26.8335 63 26.8335ZM30.3333 7.00006L41.3001 19.8335H32.6667C31.5001 19.8335 30.3333 18.6669 30.3333 17.5001V7.00006ZM42 61.8333C42 62.9999 41.0667 64.1667 39.6667 64.1667H4.66667C3.50006 64.1667 2.33333 63.2333 2.33333 61.8333V8.16679C2.33333 7.00018 3.26667 5.83346 4.66667 5.83346H28V17.5001C28 20.0669 30.0999 22.1668 32.6667 22.1668H42V26.8335H23.3333C19.3666 26.8335 16.3333 29.8667 16.3333 33.8335V50.1668C16.3333 54.1335 19.3666 57.1668 23.3333 57.1668H42V61.8333ZM67.6667 50.1668C67.6667 52.7334 65.5666 54.8335 63 54.8335H23.3333C20.7666 54.8335 18.6667 52.7334 18.6667 50.1668V33.8333C18.6667 31.2666 20.7666 29.1667 23.3333 29.1667H63C65.5666 29.1667 67.6667 31.2666 67.6667 33.8333V50.1668Z" fill="#0C4C8A"/>
<path d="M51.333 50.1668H53.6663V43.1667H60.6663V40.8335H53.6663V36.1668H62.9997V33.8334H51.333V50.1668Z" fill="#0C4C8A"/>
</svg>
