<svg width="70" height="70" viewBox="0 0 70 70" fill="none" xmlns="http://www.w3.org/2000/svg">
<g clip-path="url(#clip0_9_121)">
<path d="M20.4167 40.8333C9.16125 40.8333 0 31.6721 0 20.4167C0 9.16125 9.16125 0 20.4167 0C31.6721 0 40.8333 9.16125 40.8333 20.4167C40.8333 31.6721 31.6721 40.8333 20.4167 40.8333ZM20.4167 2.91667C10.7654 2.91667 2.91667 10.7654 2.91667 20.4167C2.91667 30.0679 10.7654 37.9167 20.4167 37.9167C30.0679 37.9167 37.9167 30.0679 37.9167 20.4167C37.9167 10.7654 30.0679 2.91667 20.4167 2.91667Z" fill="black"/>
<path d="M21.875 30.625H14.5833C13.7783 30.625 13.125 29.9717 13.125 29.1667C13.125 28.3617 13.7783 27.7083 14.5833 27.7083H21.875C23.485 27.7083 24.7917 26.4017 24.7917 24.7917C24.7917 23.1817 23.485 21.875 21.875 21.875H18.9583C15.7413 21.875 13.125 19.2588 13.125 16.0417C13.125 12.8246 15.7413 10.2083 18.9583 10.2083H26.25C27.055 10.2083 27.7083 10.8617 27.7083 11.6667C27.7083 12.4717 27.055 13.125 26.25 13.125H18.9583C17.3483 13.125 16.0417 14.4317 16.0417 16.0417C16.0417 17.6517 17.3483 18.9583 18.9583 18.9583H21.875C25.0921 18.9583 27.7083 21.5746 27.7083 24.7917C27.7083 28.0088 25.0921 30.625 21.875 30.625Z" fill="black"/>
<path d="M20.4166 35C19.6116 35 18.9583 34.3466 18.9583 33.5416V29.1666C18.9583 28.3616 19.6116 27.7083 20.4166 27.7083C21.2216 27.7083 21.8749 28.3616 21.8749 29.1666V33.5416C21.8749 34.3466 21.2216 35 20.4166 35Z" fill="black"/>
<path d="M20.4166 13.125C19.6116 13.125 18.9583 12.4717 18.9583 11.6667V7.29168C18.9583 6.48668 19.6116 5.83334 20.4166 5.83334C21.2216 5.83334 21.8749 6.48668 21.8749 7.29168V11.6667C21.8749 12.4717 21.2216 13.125 20.4166 13.125Z" fill="black"/>
<path d="M32.8124 70C25.1737 70 18.9583 63.7846 18.9583 56.1458V39.375C18.9583 38.57 19.6116 37.9167 20.4166 37.9167C21.2216 37.9167 21.8749 38.57 21.8749 39.375V56.1458C21.8749 62.1746 26.7837 67.0833 32.8124 67.0833C38.8412 67.0833 43.7499 62.1746 43.7499 56.1458V14.5833C43.7499 9.75918 47.6758 5.83334 52.4999 5.83334C57.3241 5.83334 61.2499 9.75918 61.2499 14.5833V45.2083C61.2499 46.0133 60.5966 46.6667 59.7916 46.6667C58.9866 46.6667 58.3333 46.0133 58.3333 45.2083V14.5833C58.3333 11.3663 55.717 8.75001 52.4999 8.75001C49.2828 8.75001 46.6666 11.3663 46.6666 14.5833V56.1458C46.6666 63.7846 40.4512 70 32.8124 70Z" fill="black"/>
<path d="M59.7916 70C54.1624 70 49.5833 65.4208 49.5833 59.7917V48.125C49.5833 45.7129 51.5462 43.75 53.9583 43.75H65.6249C68.037 43.75 69.9999 45.7129 69.9999 48.125V59.7917C69.9999 65.4208 65.4207 70 59.7916 70ZM53.9583 46.6667C53.1562 46.6667 52.4999 47.3229 52.4999 48.125V59.7917C52.4999 63.8138 55.7695 67.0833 59.7916 67.0833C63.8137 67.0833 67.0833 63.8138 67.0833 59.7917V48.125C67.0833 47.3229 66.427 46.6667 65.6249 46.6667H53.9583Z" fill="black"/>
</g>
<defs>
<clipPath id="clip0_9_121">
<rect width="70" height="70" fill="white"/>
</clipPath>
</defs>
</svg>
