<?xml version="1.0" encoding="utf-8"?><svg viewBox="0 0 70 70" xmlns="http://www.w3.org/2000/svg" xmlns:xlink="http://www.w3.org/1999/xlink"><style>:root>svg{display:none}:root>svg:target{display:block}</style><svg fill="none" viewBox="0 0 68 58" id="analisSys" xmlns="http://www.w3.org/2000/svg"><path d="M64.078.563H3.922A3.832 3.832 0 0 0 .094 4.39v49.218a3.832 3.832 0 0 0 3.828 3.828h60.156a3.832 3.832 0 0 0 3.828-3.828V4.391A3.833 3.833 0 0 0 64.078.562zm1.64 53.046a1.642 1.642 0 0 1-1.64 1.641H3.922a1.642 1.642 0 0 1-1.64-1.64V9.312h63.437v44.296zm0-46.484H2.282V4.391a1.642 1.642 0 0 1 1.64-1.641h60.157a1.642 1.642 0 0 1 1.64 1.64v2.735z" fill="#000"/><path d="M4.469 6.031h1.093a1.094 1.094 0 1 0 0-2.187H4.47a1.094 1.094 0 1 0 0 2.187zm4.375 0h1.094a1.094 1.094 0 1 0 0-2.187H8.844a1.094 1.094 0 1 0 0 2.187zm4.375 0h1.094a1.094 1.094 0 1 0 0-2.187h-1.094a1.094 1.094 0 1 0 0 2.187zm10.937 6.563h-17.5a1.094 1.094 0 0 0-1.093 1.094v17.5a1.094 1.094 0 0 0 1.093 1.093h17.5a1.094 1.094 0 0 0 1.094-1.093v-17.5a1.093 1.093 0 0 0-1.094-1.094zm-1.093 17.5H7.75V14.78h15.313v15.313z" fill="#000"/><path d="m20.664 27.511-4.238-10.937a1.094 1.094 0 0 0-1.014-.699h-.006a1.095 1.095 0 0 0-1.016.688L10.015 27.5a1.094 1.094 0 0 0 2.032.812l1.475-3.687H17.2l1.425 3.676a1.094 1.094 0 0 0 2.04-.79zm-6.267-5.073.993-2.483.962 2.483h-1.955zm46.947 9.843h-17.5a1.094 1.094 0 0 0-1.094 1.094v17.5a1.093 1.093 0 0 0 1.094 1.094h17.5a1.094 1.094 0 0 0 1.093-1.094v-17.5a1.093 1.093 0 0 0-1.093-1.094zm-1.094 17.5H44.937V34.47H60.25v15.31z" fill="#000"/><path d="M54.587 39.954a3.286 3.286 0 0 0-3.087-4.391h-3.281a1.093 1.093 0 0 0-1.094 1.093v10.938a1.093 1.093 0 0 0 1.094 1.093h6.015a3.832 3.832 0 0 0 3.828-3.828v-1.093a3.834 3.834 0 0 0-3.475-3.812zm-5.275-2.204H51.5a1.093 1.093 0 1 1 0 2.188h-2.188V37.75zm6.563 7.11a1.642 1.642 0 0 1-1.64 1.64h-4.922v-4.375h4.921a1.642 1.642 0 0 1 1.641 1.64v1.094zM27.438 23.531H51.5v6.563a1.093 1.093 0 1 0 2.188 0v-7.657a1.093 1.093 0 0 0-1.094-1.093H27.437a1.094 1.094 0 1 0 0 2.187zm13.125 17.5H16.5V34.47a1.093 1.093 0 1 0-2.188 0v7.656a1.093 1.093 0 0 0 1.094 1.094h25.157a1.094 1.094 0 0 0 0-2.188z" fill="#000"/></svg><svg fill="none" viewBox="0 0 70 70" id="autoSys" xmlns="http://www.w3.org/2000/svg"><path d="M14.219 7.656a6.57 6.57 0 0 0-6.563 6.563 6.569 6.569 0 0 0 6.563 6.562 6.569 6.569 0 0 0 6.562-6.562 6.569 6.569 0 0 0-6.562-6.563zm0 10.938a4.38 4.38 0 0 1-4.375-4.375 4.38 4.38 0 0 1 4.375-4.375 4.38 4.38 0 0 1 4.375 4.375 4.38 4.38 0 0 1-4.375 4.375zm19.687-5.469h2.188v2.188h-2.188v-2.188zm4.375 0h6.563v2.188H38.28v-2.188zM33.906 17.5h10.938v2.188H33.906V17.5zM14.219 53.594h-8.75v6.562h8.75v-6.562zm-2.188 4.375H7.656V55.78h4.375v2.188zm4.375-4.375h6.563v2.187h-6.563v-2.187zm0 4.375h6.563v2.187h-6.563V57.97zM5.469 62.344h17.5v2.187h-17.5v-2.187z" fill="#000"/><path d="M65.625 38.281h-17.5a3.285 3.285 0 0 0-3.281 3.282v7.656h-4.375v-10c1.881-.488 3.281-2.186 3.281-4.219 0-2.032-1.4-3.73-3.281-4.22v-6.718h5.468a3.285 3.285 0 0 0 3.282-3.28v-5.47h4.473c.523 3.1 3.218 5.47 6.464 5.47a6.57 6.57 0 0 0 6.563-6.563 6.525 6.525 0 0 0-.794-3.128l2.66-2.661-1.546-1.547-2.481 2.482a6.53 6.53 0 0 0-4.402-1.709c-3.245 0-5.94 2.37-6.464 5.469H49.22V7.656a3.285 3.285 0 0 0-3.282-3.281H32.813a3.285 3.285 0 0 0-3.282 3.281v5.469h-2.187v-1.928l-2.871-.786c-.094-.25-.198-.5-.313-.749l1.476-2.588L21.362 2.8l-2.588 1.477a11.305 11.305 0 0 0-.749-.313l-.784-2.87h-6.044l-.786 2.87c-.25.095-.5.199-.749.314L7.074 2.8 2.801 7.075l1.477 2.588c-.114.249-.22.498-.313.75l-2.871.784v6.044l2.87.785c.095.25.199.501.314.75L2.8 21.362l4.274 4.274 2.588-1.476c.249.114.498.219.75.313l.784 2.87h1.928v17.5h-8.75a3.285 3.285 0 0 0-3.281 3.281v17.5a3.285 3.285 0 0 0 3.281 3.281h19.688a3.285 3.285 0 0 0 3.28-3.281v-17.5a3.285 3.285 0 0 0-3.28-3.281h-8.75v-17.5h1.928l.785-2.871c.25-.094.501-.198.75-.313l2.587 1.476 4.274-4.274-1.476-2.588c.114-.248.219-.497.313-.749l2.87-.784v-1.928h2.187v5.468a3.285 3.285 0 0 0 3.282 3.282h5.468v6.717C36.4 31.27 35 32.968 35 35c0 2.033 1.4 3.73 3.281 4.22v12.186h6.563v7.657a3.285 3.285 0 0 0 3.281 3.28h17.5a3.285 3.285 0 0 0 3.281-3.28v-17.5a3.285 3.285 0 0 0-3.281-3.282zM60.156 9.844c1.09 0 2.077.415 2.844 1.078l-2.844 2.844-1.414-1.414-1.546 1.546 2.96 2.961 4.105-4.105c.164.46.27.949.27 1.465a4.38 4.38 0 0 1-4.375 4.375 4.38 4.38 0 0 1-4.375-4.375 4.38 4.38 0 0 1 4.375-4.375zM24.063 66.719H4.375c-.603 0-1.094-.49-1.094-1.094V51.406h21.875v14.219c0 .604-.49 1.094-1.093 1.094zm1.093-18.594v1.094H3.281v-1.094c0-.604.491-1.094 1.094-1.094h19.688c.602 0 1.093.49 1.093 1.094zm0-32.553-2.398.656-.177.574a8.678 8.678 0 0 1-.626 1.5l-.28.531 1.235 2.165-1.914 1.914-2.165-1.235-.532.28c-.49.26-.995.47-1.499.626l-.574.177-.654 2.396h-2.706l-.656-2.398-.575-.177a8.678 8.678 0 0 1-1.5-.626l-.53-.28L7.44 22.91l-1.914-1.914L6.76 18.83l-.28-.532a8.736 8.736 0 0 1-.625-1.499l-.177-.574-2.397-.654v-2.706l2.399-.656.177-.575a8.684 8.684 0 0 1 .626-1.5l.28-.53-1.235-2.163 1.914-1.914 2.164 1.235.532-.28c.491-.26.995-.47 1.5-.626l.574-.177.654-2.399h2.706l.656 2.399.574.177a8.684 8.684 0 0 1 1.5.626l.531.28 2.165-1.235 1.914 1.914-1.235 2.164.28.532c.26.491.47.995.626 1.5l.177.574 2.398.656v2.704h-.002zm7.657-9.01h13.124c.603 0 1.094.492 1.094 1.094V8.75H31.72V7.656c0-.602.49-1.093 1.093-1.093zm-1.094 14.22v-9.845H47.03v9.844c0 .603-.49 1.094-1.093 1.094H32.812a1.095 1.095 0 0 1-1.093-1.094zM37.187 35a2.19 2.19 0 0 1 2.188-2.188A2.19 2.19 0 0 1 41.563 35a2.19 2.19 0 0 1-2.188 2.188A2.19 2.19 0 0 1 37.187 35zm10.938 5.469h17.5c.603 0 1.094.49 1.094 1.093v1.094H47.03v-1.093c0-.604.491-1.094 1.094-1.094zm17.5 19.687h-17.5c-.603 0-1.094-.49-1.094-1.093v-14.22H66.72v14.22c0 .603-.491 1.093-1.094 1.093z" fill="#000"/><path d="M55.781 47.031H49.22v6.563h6.562V47.03zm-2.187 4.375h-2.188V49.22h2.188v2.187zm4.375-4.375h6.562v2.188H57.97V47.03zm0 4.375h6.562v2.188H57.97v-2.188zm-8.75 4.375H64.53v2.188H49.22V55.78z" fill="#000"/></svg><svg fill="none" viewBox="0 0 20 20" id="contacts1" xmlns="http://www.w3.org/2000/svg"><path d="M10 0a7.04 7.04 0 0 0-7.031 7.031c0 1.31.363 2.589 1.05 3.698l5.58 8.994a.586.586 0 0 0 .499.277h.004a.586.586 0 0 0 .498-.285l5.44-9.081a7.023 7.023 0 0 0 .991-3.603A7.04 7.04 0 0 0 10 0zm5.034 10.032-4.945 8.256-5.075-8.177a5.852 5.852 0 0 1-.881-3.08A5.88 5.88 0 0 1 10 1.164c3.23 0 5.863 2.636 5.863 5.867 0 1.06-.29 2.097-.83 3.001z" fill="#0C4C8A"/><path d="M10 3.516A3.52 3.52 0 0 0 6.484 7.03 3.511 3.511 0 0 0 10 10.547a3.509 3.509 0 0 0 3.516-3.516A3.52 3.52 0 0 0 10 3.516zm0 5.867A2.353 2.353 0 0 1 7.648 7.03 2.36 2.36 0 0 1 10 4.68a2.357 2.357 0 0 1 2.348 2.351A2.349 2.349 0 0 1 10 9.383z" fill="#0C4C8A"/></svg><svg fill="none" viewBox="0 0 20 20" id="contacts2" xmlns="http://www.w3.org/2000/svg"><g clip-path="url(#da)"><path d="M14.374 20a5.573 5.573 0 0 1-1.912-.341A20.386 20.386 0 0 1 5.06 14.94 20.383 20.383 0 0 1 .342 7.538a5.532 5.532 0 0 1-.283-2.72A5.663 5.663 0 0 1 2.975.667 5.57 5.57 0 0 1 5.64 0c.295 0 .55.206.611.494l.981 4.578a.625.625 0 0 1-.169.573L5.388 7.32a16.45 16.45 0 0 0 7.29 7.29l1.677-1.675a.625.625 0 0 1 .573-.17l4.578.982a.625.625 0 0 1 .494.61 5.57 5.57 0 0 1-.666 2.667 5.664 5.664 0 0 1-4.153 2.915 5.5 5.5 0 0 1-.807.06zM5.142 1.277a4.329 4.329 0 0 0-3.096 1.845 4.306 4.306 0 0 0-.53 3.989A18.956 18.956 0 0 0 12.89 18.484a4.306 4.306 0 0 0 3.99-.53 4.33 4.33 0 0 0 1.844-3.096L15 14.06l-1.751 1.75a.625.625 0 0 1-.708.124A17.697 17.697 0 0 1 4.066 7.46a.625.625 0 0 1 .123-.708l1.75-1.75-.797-3.725z" fill="#0C4C8A"/></g><defs><clipPath id="da"><path fill="#fff" d="M0 0h20v20H0z"/></clipPath></defs></svg><svg fill="none" viewBox="0 0 20 20" id="contacts3" xmlns="http://www.w3.org/2000/svg"><path d="M18.242 8.242h-2.969V4.141a2.933 2.933 0 0 0-2.93-2.93h-7.03a.586.586 0 0 0-.586.586v6.445h-2.97A1.76 1.76 0 0 0 0 10v3.516a1.76 1.76 0 0 0 1.758 1.757h2.969v2.93c0 .324.262.586.585.586h9.375a.586.586 0 0 0 .586-.586v-2.93h2.97A1.76 1.76 0 0 0 20 13.516V10a1.76 1.76 0 0 0-1.758-1.758zm-4.241-4.687H12.93V2.484c.498.176.894.572 1.07 1.07zM5.898 2.383h5.86V4.14c0 .323.262.586.586.586h1.758v3.515H5.898v-5.86zm8.204 15.234H5.898v-3.515h8.204v3.515zm4.726-4.101a.587.587 0 0 1-.586.586h-2.969v-.586a.586.586 0 0 0-.585-.586H5.312a.586.586 0 0 0-.585.586v.586h-2.97a.587.587 0 0 1-.585-.586V10c0-.323.263-.586.586-.586h16.484c.323 0 .586.263.586.586v3.516z" fill="#0C4C8A"/><path d="M14.688 11.758a.586.586 0 1 0 0-1.172.586.586 0 0 0 0 1.172zm-2.344 0a.586.586 0 1 0 0-1.172.586.586 0 0 0 0 1.172zm0 3.515H7.656a.586.586 0 0 0 0 1.172h4.688a.586.586 0 0 0 0-1.172z" fill="#0C4C8A"/></svg><svg fill="none" viewBox="0 0 20 20" id="contacts4" xmlns="http://www.w3.org/2000/svg"><path d="M18.242 2.383H1.758A1.76 1.76 0 0 0 0 4.14v11.718a1.76 1.76 0 0 0 1.758 1.758h16.484A1.76 1.76 0 0 0 20 15.86V4.141a1.76 1.76 0 0 0-1.758-1.758zM18 3.555l-7.963 7.962-8.03-7.962H18zM1.172 15.617V4.377l5.644 5.596-5.644 5.644zm.829.828 5.647-5.647 1.979 1.962a.585.585 0 0 0 .826-.002l1.93-1.93L18 16.446H2zm16.827-.828L13.211 10l5.617-5.617v11.234z" fill="#0C4C8A"/></svg><svg fill="none" viewBox="0 0 68 60" id="dispetSys" xmlns="http://www.w3.org/2000/svg"><path d="M35.094.469v13.235a5.54 5.54 0 0 0-2.188 0V.47H.094v59.06h32.812V46.296a5.54 5.54 0 0 0 2.188 0V59.53h32.812V.47H35.094zM34 15.78a3.285 3.285 0 0 1 3.281 3.281A3.285 3.285 0 0 1 34 22.345a3.285 3.285 0 0 1-3.281-3.282A3.285 3.285 0 0 1 34 15.783zm3.281 20.695v-12.72l6.624 6.699-6.624 6.021zM35.094 24.42v11.157a5.463 5.463 0 0 0-2.188.001V24.421a5.54 5.54 0 0 0 2.188 0zm-4.375 12.055L23.595 30l7.124-6.476v12.952zm0 20.868H2.28V2.656h28.44V14.69a5.462 5.462 0 0 0-2.188 4.373c0 1.019.288 1.97.776 2.788l-7.338 6.67-7.348-6.68c.488-.817.785-1.76.785-2.779a5.475 5.475 0 0 0-5.469-5.468 5.475 5.475 0 0 0-5.468 5.469 5.475 5.475 0 0 0 5.468 5.468c1.206 0 2.31-.404 3.216-1.067L20.343 30l-7.19 6.536a5.423 5.423 0 0 0-3.216-1.067 5.475 5.475 0 0 0-5.468 5.468 5.475 5.475 0 0 0 5.468 5.47 5.475 5.475 0 0 0 5.47-5.47 5.414 5.414 0 0 0-.786-2.779l7.348-6.68 7.338 6.672a5.425 5.425 0 0 0-.776 2.788 5.46 5.46 0 0 0 2.188 4.372v12.034zm-20.782-35a3.285 3.285 0 0 1-3.28-3.282 3.285 3.285 0 0 1 3.28-3.28 3.285 3.285 0 0 1 3.282 3.28 3.285 3.285 0 0 1-3.281 3.282zm3.282 18.593a3.285 3.285 0 0 1-3.281 3.282 3.285 3.285 0 0 1-3.282-3.282 3.285 3.285 0 0 1 3.282-3.28 3.285 3.285 0 0 1 3.28 3.28zM34 44.22a3.285 3.285 0 0 1-3.281-3.282A3.285 3.285 0 0 1 34 37.657a3.285 3.285 0 0 1 3.281 3.28A3.285 3.285 0 0 1 34 44.22zm31.719 13.125H37.28V45.31a5.462 5.462 0 0 0 2.188-4.373c0-1.019-.288-1.97-.776-2.787l6.752-6.139 9.642 9.75a3.24 3.24 0 0 0-.306 1.364 3.285 3.285 0 0 0 3.282 3.281 3.285 3.285 0 0 0 3.28-3.281 3.285 3.285 0 0 0-3.28-3.281c-.522 0-1.01.133-1.449.35l-9.55-9.656 7.783-7.075a5.417 5.417 0 0 0 3.215 1.068 5.475 5.475 0 0 0 5.47-5.468 5.475 5.475 0 0 0-5.47-5.47 5.475 5.475 0 0 0-5.468 5.47 5.41 5.41 0 0 0 .785 2.779l-7.854 7.14-6.914-6.991c.54-.848.858-1.851.858-2.928a5.46 5.46 0 0 0-2.188-4.373V2.656h28.44v54.688zM58.063 42.03a1.095 1.095 0 0 1 0 2.188 1.095 1.095 0 0 1 0-2.188zM54.78 19.063a3.285 3.285 0 0 1 3.282-3.282 3.285 3.285 0 0 1 3.28 3.281 3.285 3.285 0 0 1-3.28 3.282 3.285 3.285 0 0 1-3.282-3.282z" fill="#000"/><path d="M4.469 9.219h2.187v2.187H4.47V9.22zm4.375 0H28.53v2.187H8.844V9.22zM4.469 55.156H28.53v-6.562H4.47v6.562zm2.187-4.375h19.688v2.188H6.656V50.78zM63.531 4.844H39.47v6.562h24.06V4.844zm-2.187 4.375H41.656V7.03h19.688v2.19zM4.469 4.844H28.53V7.03H4.47V4.844zm35 43.75h2.187v2.187H39.47v-2.187zm4.375 0H63.53v2.187H43.844v-2.187zm-4.375 4.375H63.53v2.187H39.47V52.97z" fill="#000"/></svg><svg fill="none" viewBox="0 0 70 70" id="docs" xmlns="http://www.w3.org/2000/svg"><path d="M30.333 33.833h-7v16.334h2.333v-7h4.667A4.68 4.68 0 0 0 35 38.5a4.68 4.68 0 0 0-4.667-4.667zm0 7h-4.667v-4.666h4.667c1.4 0 2.333.933 2.333 2.333 0 1.4-.933 2.334-2.333 2.334zm14-7h-7v16.334h7A4.68 4.68 0 0 0 49 45.5v-7a4.68 4.68 0 0 0-4.667-4.667zM46.666 45.5c0 1.4-.933 2.334-2.333 2.334h-4.667V36.166h4.667c1.4 0 2.333.933 2.333 2.333v7z" fill="#0C4C8A"/><path d="M63 26.834H44.333v-7l-14-16.334H4.667A4.68 4.68 0 0 0 0 8.167v53.666A4.68 4.68 0 0 0 4.667 66.5h35a4.68 4.68 0 0 0 4.666-4.666v-4.667H63c3.967 0 7-3.034 7-7V33.833c0-3.966-3.033-7-7-7zM30.333 7 41.3 19.834h-8.633c-1.167 0-2.334-1.167-2.334-2.334V7zM42 61.833c0 1.167-.933 2.334-2.333 2.334h-35c-1.167 0-2.334-.934-2.334-2.334V8.167c0-1.167.934-2.334 2.334-2.334H28V17.5a4.68 4.68 0 0 0 4.667 4.667H42v4.666H23.333c-3.966 0-7 3.034-7 7v16.334c0 3.966 3.034 7 7 7H42v4.666zm25.667-11.666A4.68 4.68 0 0 1 63 54.833H23.333a4.68 4.68 0 0 1-4.666-4.666V33.833a4.68 4.68 0 0 1 4.666-4.666H63a4.68 4.68 0 0 1 4.667 4.666v16.334z" fill="#0C4C8A"/><path d="M51.333 50.167h2.333v-7h7v-2.334h-7v-4.666H63v-2.334H51.333v16.334z" fill="#0C4C8A"/></svg><svg fill="#fff" viewBox="0 0 20 20" id="footerMail" xmlns="http://www.w3.org/2000/svg"><g clip-path="url(#ia)"><path d="M19.824 3.974 13.758 10l6.066 6.027c.11-.23.176-.483.176-.754V4.728c0-.271-.067-.524-.176-.753zm-1.582-1.005H1.758c-.27 0-.524.066-.753.176l7.752 7.713a1.76 1.76 0 0 0 2.486 0l7.752-7.713a1.737 1.737 0 0 0-.753-.176zM.176 3.974A1.73 1.73 0 0 0 0 4.727v10.547c0 .27.067.523.176.753L6.242 10 .176 3.974z"/><path d="m12.93 10.829-.859.858a2.933 2.933 0 0 1-4.142 0l-.859-.858-6.065 6.026c.229.11.482.176.753.176h16.484c.27 0 .524-.066.753-.176L12.93 10.83z"/></g><defs><clipPath id="ia"><path d="M0 0h20v20H0z"/></clipPath></defs></svg><svg fill="#fff" viewBox="0 0 20 20" id="footerPhone" xmlns="http://www.w3.org/2000/svg"><path d="m19.91 15.942-.1-.3c-.235-.7-1.008-1.432-1.718-1.624l-2.628-.718c-.712-.194-1.729.066-2.25.588l-.95.951a10.088 10.088 0 0 1-7.1-7.1l.951-.952c.522-.521.782-1.537.589-2.25l-.717-2.629C5.793 1.197 5.061.424 4.362.191l-.3-.101c-.701-.233-1.7.003-2.222.524L.418 2.038C.163 2.291 0 3.014 0 3.017A16.805 16.805 0 0 0 4.917 15.08 16.804 16.804 0 0 0 16.942 20c.023 0 .767-.16 1.022-.412l1.422-1.423c.521-.522.757-1.521.524-2.222z"/></svg><svg fill="none" viewBox="0 0 20 20" id="mail" xmlns="http://www.w3.org/2000/svg"><g clip-path="url(#ka)" fill="#0C4C8A"><path d="M19.824 3.974 13.758 10l6.066 6.027c.11-.23.176-.483.176-.754V4.728c0-.271-.067-.524-.176-.753zm-1.582-1.005H1.758c-.27 0-.524.066-.753.176l7.752 7.713a1.76 1.76 0 0 0 2.486 0l7.752-7.713a1.737 1.737 0 0 0-.753-.176zM.176 3.974A1.73 1.73 0 0 0 0 4.727v10.547c0 .27.067.523.176.753L6.242 10 .176 3.974z"/><path d="m12.93 10.829-.859.858a2.933 2.933 0 0 1-4.142 0l-.859-.858-6.065 6.026c.229.11.482.176.753.176h16.484c.27 0 .524-.066.753-.176L12.93 10.83z"/></g><defs><clipPath id="ka"><path fill="#fff" d="M0 0h20v20H0z"/></clipPath></defs></svg><svg fill="none" viewBox="0 0 20 20" id="phone" xmlns="http://www.w3.org/2000/svg"><path d="m19.91 15.942-.1-.3c-.235-.7-1.008-1.432-1.718-1.624l-2.628-.718c-.712-.194-1.729.066-2.25.588l-.95.951a10.088 10.088 0 0 1-7.1-7.1l.951-.952c.522-.521.782-1.537.589-2.25l-.717-2.629C5.793 1.197 5.061.424 4.362.191l-.3-.101c-.701-.233-1.7.003-2.222.524L.418 2.038C.163 2.291 0 3.014 0 3.017A16.805 16.805 0 0 0 4.917 15.08 16.804 16.804 0 0 0 16.942 20c.023 0 .767-.16 1.022-.412l1.422-1.423c.521-.522.757-1.521.524-2.222z" fill="#0C4C8A"/></svg><svg fill="none" viewBox="0 0 70 70" id="prod" xmlns="http://www.w3.org/2000/svg"><g clip-path="url(#ma)" fill="#000"><path d="M20.417 40.833C9.16 40.833 0 31.673 0 20.417S9.161 0 20.417 0c11.255 0 20.416 9.161 20.416 20.417 0 11.255-9.16 20.416-20.416 20.416zm0-37.916c-9.652 0-17.5 7.848-17.5 17.5 0 9.65 7.848 17.5 17.5 17.5 9.65 0 17.5-7.85 17.5-17.5 0-9.652-7.85-17.5-17.5-17.5z"/><path d="M21.875 30.625h-7.292a1.459 1.459 0 0 1 0-2.917h7.292a2.918 2.918 0 0 0 0-5.833h-2.917a5.84 5.84 0 0 1-5.833-5.833 5.84 5.84 0 0 1 5.833-5.834h7.292a1.459 1.459 0 0 1 0 2.917h-7.292a2.918 2.918 0 0 0 0 5.833h2.917a5.84 5.84 0 0 1 5.833 5.834 5.84 5.84 0 0 1-5.833 5.833z"/><path d="M20.417 35a1.459 1.459 0 0 1-1.459-1.458v-4.375a1.459 1.459 0 0 1 2.917 0v4.375c0 .805-.653 1.458-1.458 1.458zm0-21.875a1.459 1.459 0 0 1-1.459-1.458V7.292a1.459 1.459 0 0 1 2.917 0v4.375c0 .805-.653 1.458-1.458 1.458zM32.812 70c-7.638 0-13.854-6.215-13.854-13.854V39.375a1.459 1.459 0 0 1 2.917 0v16.77c0 6.03 4.909 10.938 10.937 10.938 6.03 0 10.938-4.908 10.938-10.937V14.583c0-4.824 3.926-8.75 8.75-8.75s8.75 3.926 8.75 8.75v30.625a1.459 1.459 0 0 1-2.917 0V14.583A5.84 5.84 0 0 0 52.5 8.75a5.84 5.84 0 0 0-5.833 5.833v41.563C46.667 63.785 40.45 70 32.812 70z"/><path d="M59.792 70c-5.63 0-10.209-4.58-10.209-10.208V48.125a4.38 4.38 0 0 1 4.375-4.375h11.667A4.38 4.38 0 0 1 70 48.125v11.667C70 65.42 65.42 70 59.792 70zm-5.834-23.333c-.802 0-1.458.656-1.458 1.458v11.667a7.298 7.298 0 0 0 7.292 7.291 7.298 7.298 0 0 0 7.291-7.291V48.125c0-.802-.656-1.458-1.458-1.458H53.958z"/></g><defs><clipPath id="ma"><path fill="#fff" d="M0 0h70v70H0z"/></clipPath></defs></svg></svg>